Coordinates
version=1
nRows=35
nColumns=33
inDegrees=yes

Units are S.I. units (second, meters, Newtons, ...)
Angles are in degrees.

endheader
time	ground_thorax_rot_x	ground_thorax_rot_y	ground_thorax_rot_z	ground_thorax_tx	ground_thorax_ty	ground_thorax_tz	clav_prot_r	clav_elev_r	scapula_abduction_r	scapula_elevation_r	scapula_upward_rot_r	scapula_winging_r	shoulder_elv_r	plane_of_elev_r	axial_rot_r	elbow_flexion_r	pro_sup_r	wrist_flex_r	wrist_dev_r	clav_prot_l	clav_elev_l	scapula_abduction_l	scapula_elevation_l	scapula_upward_rot_l	scapula_winging_l	shoulder_elv_l	plane_of_elev_l	axial_rot_l	elbow_flexion_l	pro_sup_l	wrist_flex_l	wrist_dev_l	
4.5500	-3.586724	0.187909	11.633000	-0.107775	1.028490	0.006508	16.540402	-11.366927	42.710420	-12.219955	24.471556	-13.023677	-9.629915	-55.535589	119.808145	-35.193393	-144.814825	-1.039223	5.451635	24.725861	-11.512203	-36.902069	-6.006725	-25.881791	11.937477	55.108586	-0.620277	3.026900	11.543861	15.396348	16.096272	-4.846496	
4.5600	-3.609892	0.283798	11.702486	-0.108136	1.028351	0.006351	16.534419	-11.400704	42.543038	-12.189342	24.240941	-12.957905	-9.647625	-55.569533	119.761135	-35.439037	-145.044826	-0.860374	5.441479	24.658665	-11.389884	-36.808479	-6.089018	-25.827959	11.914069	55.017079	-0.714755	3.201072	11.827171	15.125450	16.071257	-4.924886	
4.5700	-3.630839	0.387306	11.782351	-0.108443	1.028192	0.006204	16.519451	-11.453055	42.312454	-12.156004	23.938750	-12.860193	-9.680890	-55.609795	119.700257	-35.783654	-145.338033	-0.629303	5.426749	24.568145	-11.255862	-36.677726	-6.184603	-25.778547	11.870909	54.910765	-0.827596	3.407133	12.194822	14.834261	16.026792	-5.037453	
4.5800	-3.643346	0.504321	11.858619	-0.108773	1.028040	0.006053	16.484788	-11.523579	42.020822	-12.126633	23.592200	-12.727584	-9.720659	-55.680220	119.625824	-36.213570	-145.656160	-0.380487	5.404900	24.454863	-11.145481	-36.505447	-6.273843	-25.755734	11.795182	54.848155	-0.937488	3.594072	12.603753	14.652083	15.946783	-5.187112	
4.5900	-3.655847	0.632465	11.937474	-0.109104	1.027887	0.005905	16.427566	-11.627092	41.643368	-12.105964	23.172010	-12.543316	-9.774642	-55.779558	119.544865	-36.768301	-146.047621	-0.087246	5.378408	24.313540	-11.048030	-36.284383	-6.363989	-25.754961	11.685450	54.820766	-1.062599	3.771295	13.080911	14.549215	15.830826	-5.382184	
4.6000	-3.682923	0.774365	12.012916	-0.109423	1.027777	0.005750	16.331750	-11.811576	41.132802	-12.127183	22.648096	-12.259149	-9.828286	-55.918666	119.468872	-37.476002	-146.601402	0.271204	5.350633	24.133691	-10.965755	-35.996959	-6.452582	-25.773900	11.530918	54.849283	-1.215907	3.920609	13.635077	14.554329	15.663933	-5.641505	
4.6100	-3.719330	0.926173	12.082736	-0.109738	1.027686	0.005601	16.198325	-12.051911	40.505564	-12.173308	22.040080	-11.895745	-9.886378	-56.089886	119.403158	-38.329185	-147.297352	0.677856	5.314960	23.924138	-10.892464	-35.658376	-6.544918	-25.813538	11.342233	54.923161	-1.388801	4.061178	14.266705	14.654570	15.465129	-5.950077	
4.6200	-3.762562	1.084722	12.146069	-0.110043	1.027603	0.005468	16.029456	-12.335298	39.769613	-12.234149	21.353026	-11.463519	-9.955244	-56.287493	119.344345	-39.331877	-148.129658	1.123921	5.260042	23.689874	-10.824210	-35.277334	-6.646509	-25.879155	11.125430	55.037556	-1.576721	4.220351	14.985825	14.847196	15.250134	-6.299358	
4.6300	-3.794519	1.242965	12.207066	-0.110363	1.027480	0.005371	15.840760	-12.599414	38.981180	-12.266308	20.628799	-11.021697	-10.057024	-56.498868	119.277357	-40.457957	-148.997955	1.574048	5.170267	23.446855	-10.759662	-34.880084	-6.763458	-25.983147	10.895836	55.174636	-1.759354	4.442336	15.786334	15.122912	15.051011	-6.661630	
4.6400	-3.822895	1.402388	12.264311	-0.110685	1.027384	0.005297	15.627209	-12.899382	38.114555	-12.310365	19.843163	-10.526427	-10.178902	-56.747187	119.185013	-41.713581	-149.975859	2.037274	5.025454	23.189684	-10.709604	-34.456480	-6.894598	-26.142321	10.644102	55.360354	-1.934872	4.740604	16.672746	15.559257	14.873282	-7.055003	
4.6500	-3.833510	1.554461	12.320416	-0.111017	1.027262	0.005266	15.399101	-13.168457	37.217044	-12.319424	19.037645	-10.036242	-10.343499	-57.009284	119.057404	-43.068784	-150.972732	2.492507	4.822743	22.928047	-10.657839	-34.024537	-7.050417	-26.350355	10.385104	55.557961	-2.086103	5.171332	17.636579	16.123723	14.747212	-7.465814	
4.6600	-3.840770	1.698097	12.374952	-0.111349	1.027173	0.005256	15.150430	-13.463914	36.261307	-12.336178	18.188139	-9.505401	-10.540838	-57.309162	118.890745	-44.526136	-152.089164	2.961120	4.550084	22.658313	-10.604460	-33.578557	-7.230649	-26.606387	10.115309	55.780676	-2.214673	5.750777	18.662573	16.912197	14.693901	-7.938199	
4.6700	-3.837919	1.824787	12.428592	-0.111675	1.027071	0.005288	14.886478	-13.719857	35.282917	-12.313649	17.332248	-8.987681	-10.786089	-57.609028	118.691499	-46.051282	-153.239984	3.438498	4.237694	22.382628	-10.527333	-33.124936	-7.438303	-26.876174	9.845613	55.978011	-2.322375	6.505339	19.726448	17.833082	14.719116	-8.464220	
4.6800	-3.843765	1.935289	12.475485	-0.111985	1.027055	0.005323	14.598536	-14.027139	34.242881	-12.321300	16.437086	-8.412281	-11.051604	-57.947376	118.459274	-47.641384	-154.568227	3.952318	3.886263	22.092352	-10.429028	-32.649182	-7.666742	-27.149076	9.567112	56.166146	-2.412221	7.437433	20.799846	19.011400	14.842833	-9.110558	
4.6900	-3.835133	2.021960	12.511240	-0.112281	1.027024	0.005401	14.302602	-14.257580	33.216483	-12.266845	15.571587	-7.886586	-11.359596	-58.261559	118.201592	-49.254246	-155.871729	4.473765	3.542239	21.795305	-10.289552	-32.166595	-7.915208	-27.387317	9.296369	56.280817	-2.486407	8.543233	21.868566	20.240441	15.049840	-9.817474	
4.7000	-3.818573	2.080575	12.544643	-0.112573	1.027030	0.005492	14.011725	-14.467708	32.207368	-12.192342	14.712212	-7.379367	-11.710806	-58.598102	117.906782	-50.896682	-157.212253	5.013035	3.199572	21.489990	-10.114436	-31.673542	-8.183800	-27.600742	9.029022	56.334683	-2.549801	9.823494	22.926085	21.629983	15.376811	-10.637282	
4.7100	-3.777012	2.112744	12.574147	-0.112868	1.027013	0.005627	13.737133	-14.568885	31.264587	-12.032908	13.903278	-6.964111	-12.115807	-58.913540	117.585231	-52.545536	-158.405298	5.547531	2.901211	21.180402	-9.911437	-31.176002	-8.465031	-27.787936	8.767218	56.317716	-2.643152	11.150358	24.015687	22.906907	15.751885	-11.457195	
4.7200	-3.722450	2.123910	12.609554	-0.113176	1.027037	0.005770	13.476894	-14.641238	30.357757	-11.847687	13.107953	-6.580562	-12.566270	-59.264989	117.238289	-54.216612	-159.541302	6.089956	2.629085	20.864136	-9.700366	-30.667970	-8.763834	-27.995391	8.498736	56.286341	-2.807712	12.407975	25.209999	24.091508	16.160863	-12.263744	
4.7300	-3.650694	2.122363	12.656806	-0.113515	1.027059	0.005947	13.233994	-14.635041	29.504989	-11.597772	12.343282	-6.266187	-13.074105	-59.622324	116.870558	-55.893075	-160.516932	6.625248	2.398825	20.547710	-9.500528	-30.159961	-9.075401	-28.249416	8.223847	56.275136	-3.132992	13.375154	26.628988	24.884271	16.539375	-12.907986	
4.7400	-3.581451	2.111413	12.725536	-0.113885	1.027132	0.006119	12.998944	-14.635110	28.664761	-11.347232	11.572693	-5.952697	-13.643305	-60.040303	116.479024	-57.582805	-161.486697	7.170005	2.173619	20.227753	-9.317004	-29.646700	-9.411167	-28.583286	7.935041	56.335707	-3.660345	13.968840	28.342056	25.330608	16.915037	-13.379295	
4.7500	-3.514876	2.099463	12.808753	-0.114289	1.027224	0.006302	12.765940	-14.611914	27.836941	-11.074032	10.808627	-5.657160	-14.270827	-60.489670	116.072048	-59.270839	-162.412914	7.715604	1.950445	19.909036	-9.159255	-29.136711	-9.765679	-29.003530	7.634582	56.495411	-4.426546	14.079160	30.388889	25.240286	17.230522	-13.569303	
4.7600	-3.456908	2.082862	12.896313	-0.114696	1.027367	0.006466	12.518887	-14.608812	26.992603	-10.817641	10.050232	-5.339858	-14.952499	-61.007718	115.661887	-60.958029	-163.393879	8.275035	1.701138	19.581121	-9.015306	-28.613582	-10.143151	-29.495766	7.316479	56.749430	-5.385706	13.797735	32.698270	24.655376	17.480771	-13.475992	
4.7700	-3.403831	2.060035	12.984836	-0.115114	1.027526	0.006616	12.268551	-14.598742	26.151319	-10.553730	9.298957	-5.025520	-15.667830	-61.570994	115.263740	-62.637084	-164.365448	8.845355	1.429247	19.250173	-8.870566	-28.088670	-10.542184	-30.030081	6.991848	57.064948	-6.475218	13.225159	35.157319	23.649355	17.644560	-13.159870	
4.7800	-3.349182	2.022387	13.068559	-0.115522	1.027696	0.006739	12.015646	-14.576296	25.318077	-10.279920	8.561836	-4.718191	-16.402229	-62.189298	114.899350	-64.307926	-165.308929	9.433105	1.135642	18.912329	-8.694889	-27.556105	-10.967232	-30.559102	6.666386	57.372120	-7.580937	12.592219	37.596675	22.447029	17.743457	-12.757614	
4.7900	-3.285081	1.970821	13.145699	-0.115937	1.027863	0.006854	11.778106	-14.524331	24.514455	-9.974444	7.823174	-4.438825	-17.139514	-62.842117	114.558767	-65.974967	-166.139269	10.050248	0.812879	18.574370	-8.489480	-27.025201	-11.401519	-31.050237	6.348753	57.638469	-8.657831	11.994903	39.919840	21.173764	17.786439	-12.368503	
4.8000	-3.203102	1.902710	13.213099	-0.116341	1.028033	0.006961	11.547760	-14.433138	23.735968	-9.634453	7.098226	-4.189981	-17.884752	-63.540420	114.247448	-67.633392	-166.824268	10.707326	0.462330	18.230788	-8.249586	-26.484730	-11.840292	-31.483627	6.035275	57.828897	-9.667710	11.519976	42.077235	19.913289	17.780991	-12.036081	
4.8100	-3.108016	1.819891	13.284707	-0.116758	1.028202	0.007066	11.335833	-14.312433	22.987197	-9.260454	6.364639	-3.968859	-18.641383	-64.279232	113.944495	-69.274931	-167.356288	11.416917	0.080275	17.887558	-7.977740	-25.943492	-12.283959	-31.864985	5.729476	57.948969	-10.631246	11.150443	44.097839	18.801826	17.769289	-11.835810	
4.8200	-3.003933	1.728714	13.348836	-0.117162	1.028409	0.007171	11.123947	-14.189898	22.240330	-8.879460	5.626437	-3.747387	-19.431730	-65.068438	113.614828	-70.883136	-167.778566	12.220239	-0.367891	17.530533	-7.687664	-25.374175	-12.716758	-32.185155	5.416759	58.025385	-11.589093	10.829306	46.032970	17.825640	17.756005	-11.725341	
4.8300	-2.895173	1.632186	13.404856	-0.117556	1.028651	0.007277	10.907372	-14.071512	21.488024	-8.497979	4.885736	-3.518439	-20.261482	-65.900052	113.247140	-72.440416	-168.118740	13.122749	-0.887204	17.159361	-7.385120	-24.775536	-13.141256	-32.459757	5.093627	58.084441	-12.574389	10.496138	47.939228	16.951179	17.732141	-11.673086	
4.8400	-2.781712	1.534373	13.445573	-0.117914	1.028943	0.007377	10.669026	-13.966006	20.711886	-8.130754	4.159700	-3.268346	-21.150909	-66.779768	112.823375	-73.918255	-168.398199	14.163342	-1.504029	16.761197	-7.075265	-24.123952	-13.553269	-32.688143	4.747868	58.143906	-13.607836	10.101965	49.847584	16.113331	17.654026	-11.619901	
4.8500	-2.658856	1.432283	13.483607	-0.118254	1.029231	0.007469	10.417234	-13.830828	19.934284	-7.745680	3.465412	-3.029464	-22.085814	-67.680971	112.375554	-75.290471	-168.574272	15.312574	-2.177721	16.350507	-6.739732	-23.446427	-13.979965	-32.893938	4.392613	58.182571	-14.660791	9.671891	51.757075	15.367411	17.505840	-11.617071	
4.8600	-2.526196	1.328289	13.515798	-0.118578	1.029518	0.007560	10.157824	-13.666216	19.162049	-7.341489	2.798898	-2.804273	-23.065755	-68.587809	111.887524	-76.545976	-168.633559	16.583287	-2.914161	15.927872	-6.387217	-22.742410	-14.411992	-33.073740	4.027451	58.207378	-15.737799	9.205720	53.656109	14.722449	17.282271	-11.679133	
4.8700	-2.381887	1.218295	13.542570	-0.118878	1.029816	0.007653	9.895796	-13.473692	18.406171	-6.922633	2.167384	-2.596921	-24.111372	-69.493249	111.333501	-77.658971	-168.535181	18.028559	-3.732065	15.488255	-6.026661	-22.000666	-14.838147	-33.220414	3.648519	58.221491	-16.851451	8.704791	55.528579	14.203897	16.966375	-11.850760	
4.8800	-2.226917	1.100534	13.564592	-0.119152	1.030124	0.007747	9.632661	-13.248639	17.673730	-6.489773	1.582142	-2.411751	-25.235947	-70.390227	110.705845	-78.614764	-168.272911	19.645565	-4.626009	15.029149	-5.655229	-21.215919	-15.260587	-33.332350	3.253605	58.224752	-18.000463	8.169117	57.362285	13.808027	16.561612	-12.137810	
4.8900	-2.062428	0.968636	13.571256	-0.119374	1.030450	0.007841	9.369279	-12.986572	16.983700	-6.054616	1.081062	-2.259358	-26.500482	-71.268387	109.958146	-79.374018	-167.780514	21.521344	-5.625026	14.533939	-5.268754	-20.354823	-15.672867	-33.386182	2.831829	58.222503	-19.195731	7.584867	59.142526	13.560092	16.035145	-12.593163	
